<mxfile host="65bd71144e">
    <diagram id="_6-gg8Lde8iF8bcr_aR9" name="intersec_rc">
        <mxGraphModel dx="1249" dy="718" grid="1" gridSize="10" guides="1" tooltips="1" connect="1" arrows="1" fold="1" page="1" pageScale="1" pageWidth="827" pageHeight="1169" math="0" shadow="0">
            <root>
                <mxCell id="ZH4LXpfFv5B8ehN6JzZi-0"/>
                <mxCell id="ZH4LXpfFv5B8ehN6JzZi-1" parent="ZH4LXpfFv5B8ehN6JzZi-0"/>
                <mxCell id="_-OJUJnLG9xTgktfz-vs-8" style="edgeStyle=none;rounded=0;html=1;exitX=0.5;exitY=1;exitDx=0;exitDy=0;exitPerimeter=0;entryX=0.5;entryY=0;entryDx=0;entryDy=0;endArrow=none;endFill=0;" edge="1" parent="ZH4LXpfFv5B8ehN6JzZi-1" source="Bp5IvcJp2YZm3LD2hwds-0" target="Bp5IvcJp2YZm3LD2hwds-1">
                    <mxGeometry relative="1" as="geometry"/>
                </mxCell>
                <mxCell id="Bp5IvcJp2YZm3LD2hwds-0" value="Начало" style="strokeWidth=1;html=1;shape=mxgraph.flowchart.terminator;whiteSpace=wrap;" vertex="1" parent="ZH4LXpfFv5B8ehN6JzZi-1">
                    <mxGeometry x="260" y="40" width="250" height="70" as="geometry"/>
                </mxCell>
                <mxCell id="_-OJUJnLG9xTgktfz-vs-9" style="edgeStyle=none;rounded=0;html=1;exitX=0.5;exitY=1;exitDx=0;exitDy=0;entryX=0.5;entryY=0;entryDx=0;entryDy=0;entryPerimeter=0;endArrow=none;endFill=0;" edge="1" parent="ZH4LXpfFv5B8ehN6JzZi-1" source="Bp5IvcJp2YZm3LD2hwds-1" target="Bp5IvcJp2YZm3LD2hwds-2">
                    <mxGeometry relative="1" as="geometry"/>
                </mxCell>
                <mxCell id="Bp5IvcJp2YZm3LD2hwds-1" value="normaxAxis = 0&lt;br&gt;tmin = -inf&lt;br&gt;tmax = +inf" style="rounded=0;whiteSpace=wrap;html=1;strokeWidth=1;" vertex="1" parent="ZH4LXpfFv5B8ehN6JzZi-1">
                    <mxGeometry x="260" y="150" width="250" height="70" as="geometry"/>
                </mxCell>
                <mxCell id="_-OJUJnLG9xTgktfz-vs-10" style="edgeStyle=none;rounded=0;html=1;exitX=0.5;exitY=1;exitDx=0;exitDy=0;exitPerimeter=0;entryX=0.5;entryY=0;entryDx=0;entryDy=0;endArrow=none;endFill=0;" edge="1" parent="ZH4LXpfFv5B8ehN6JzZi-1" source="Bp5IvcJp2YZm3LD2hwds-2" target="Bp5IvcJp2YZm3LD2hwds-3">
                    <mxGeometry relative="1" as="geometry"/>
                </mxCell>
                <mxCell id="Bp5IvcJp2YZm3LD2hwds-2" value="Цикл по координатам" style="strokeWidth=1;html=1;shape=mxgraph.flowchart.loop_limit;whiteSpace=wrap;" vertex="1" parent="ZH4LXpfFv5B8ehN6JzZi-1">
                    <mxGeometry x="260" y="260" width="250" height="70" as="geometry"/>
                </mxCell>
                <mxCell id="2HRc0u27hV1AkfrYILDi-0" style="edgeStyle=none;rounded=0;html=1;exitX=0.5;exitY=1;exitDx=0;exitDy=0;entryX=0.5;entryY=0;entryDx=0;entryDy=0;endArrow=none;endFill=0;" edge="1" parent="ZH4LXpfFv5B8ehN6JzZi-1" source="Bp5IvcJp2YZm3LD2hwds-3" target="Bp5IvcJp2YZm3LD2hwds-4">
                    <mxGeometry relative="1" as="geometry"/>
                </mxCell>
                <mxCell id="Bp5IvcJp2YZm3LD2hwds-3" value="invD = 1 / ray.direction[axis]&lt;br&gt;t0 = (min[axis] - ray.origin[axis]) * invD&lt;br&gt;t1 = (max[axis] - ray.origin[axis]) * invD" style="rounded=0;whiteSpace=wrap;html=1;strokeWidth=1;" vertex="1" parent="ZH4LXpfFv5B8ehN6JzZi-1">
                    <mxGeometry x="260" y="380" width="250" height="70" as="geometry"/>
                </mxCell>
                <mxCell id="_-OJUJnLG9xTgktfz-vs-4" value="Да" style="edgeStyle=none;rounded=0;html=1;exitX=1;exitY=0.5;exitDx=0;exitDy=0;entryX=0.5;entryY=0;entryDx=0;entryDy=0;" edge="1" parent="ZH4LXpfFv5B8ehN6JzZi-1" source="Bp5IvcJp2YZm3LD2hwds-4" target="Bp5IvcJp2YZm3LD2hwds-5">
                    <mxGeometry x="-0.0769" y="15" relative="1" as="geometry">
                        <Array as="points">
                            <mxPoint x="645" y="525"/>
                        </Array>
                        <mxPoint as="offset"/>
                    </mxGeometry>
                </mxCell>
                <mxCell id="_-OJUJnLG9xTgktfz-vs-5" style="edgeStyle=none;rounded=0;html=1;exitX=0.5;exitY=1;exitDx=0;exitDy=0;entryX=0.5;entryY=0;entryDx=0;entryDy=0;" edge="1" parent="ZH4LXpfFv5B8ehN6JzZi-1" source="Bp5IvcJp2YZm3LD2hwds-4" target="Bp5IvcJp2YZm3LD2hwds-6">
                    <mxGeometry relative="1" as="geometry"/>
                </mxCell>
                <mxCell id="Bp5IvcJp2YZm3LD2hwds-4" value="invD &amp;lt; 0" style="rhombus;whiteSpace=wrap;html=1;strokeWidth=1;" vertex="1" parent="ZH4LXpfFv5B8ehN6JzZi-1">
                    <mxGeometry x="260" y="490" width="250" height="70" as="geometry"/>
                </mxCell>
                <mxCell id="_-OJUJnLG9xTgktfz-vs-11" style="edgeStyle=none;rounded=0;html=1;exitX=0.5;exitY=1;exitDx=0;exitDy=0;entryX=0.5;entryY=0;entryDx=0;entryDy=0;endArrow=none;endFill=0;" edge="1" parent="ZH4LXpfFv5B8ehN6JzZi-1" source="Bp5IvcJp2YZm3LD2hwds-5" target="Bp5IvcJp2YZm3LD2hwds-6">
                    <mxGeometry relative="1" as="geometry">
                        <Array as="points">
                            <mxPoint x="645" y="690"/>
                            <mxPoint x="385" y="690"/>
                        </Array>
                    </mxGeometry>
                </mxCell>
                <mxCell id="Bp5IvcJp2YZm3LD2hwds-5" value="Обмен t0, t1" style="rounded=0;whiteSpace=wrap;html=1;strokeWidth=1;" vertex="1" parent="ZH4LXpfFv5B8ehN6JzZi-1">
                    <mxGeometry x="520" y="585" width="250" height="70" as="geometry"/>
                </mxCell>
                <mxCell id="_-OJUJnLG9xTgktfz-vs-3" value="Да" style="edgeStyle=none;rounded=0;html=1;exitX=1;exitY=0.5;exitDx=0;exitDy=0;entryX=0.5;entryY=0;entryDx=0;entryDy=0;" edge="1" parent="ZH4LXpfFv5B8ehN6JzZi-1" source="Bp5IvcJp2YZm3LD2hwds-6" target="Bp5IvcJp2YZm3LD2hwds-7">
                    <mxGeometry x="-0.1" y="15" relative="1" as="geometry">
                        <Array as="points">
                            <mxPoint x="645" y="745"/>
                        </Array>
                        <mxPoint as="offset"/>
                    </mxGeometry>
                </mxCell>
                <mxCell id="_-OJUJnLG9xTgktfz-vs-6" style="edgeStyle=none;rounded=0;html=1;exitX=0.5;exitY=1;exitDx=0;exitDy=0;" edge="1" parent="ZH4LXpfFv5B8ehN6JzZi-1" source="Bp5IvcJp2YZm3LD2hwds-6" target="Bp5IvcJp2YZm3LD2hwds-8">
                    <mxGeometry relative="1" as="geometry"/>
                </mxCell>
                <mxCell id="Bp5IvcJp2YZm3LD2hwds-6" value="t0 &amp;gt; tmin" style="rhombus;whiteSpace=wrap;html=1;strokeWidth=1;" vertex="1" parent="ZH4LXpfFv5B8ehN6JzZi-1">
                    <mxGeometry x="260" y="710" width="250" height="70" as="geometry"/>
                </mxCell>
                <mxCell id="_-OJUJnLG9xTgktfz-vs-13" style="edgeStyle=none;rounded=0;html=1;exitX=0.5;exitY=1;exitDx=0;exitDy=0;entryX=0.5;entryY=0;entryDx=0;entryDy=0;endArrow=none;endFill=0;" edge="1" parent="ZH4LXpfFv5B8ehN6JzZi-1" source="Bp5IvcJp2YZm3LD2hwds-7" target="Bp5IvcJp2YZm3LD2hwds-8">
                    <mxGeometry relative="1" as="geometry">
                        <Array as="points">
                            <mxPoint x="645" y="920"/>
                            <mxPoint x="385" y="920"/>
                        </Array>
                    </mxGeometry>
                </mxCell>
                <mxCell id="Bp5IvcJp2YZm3LD2hwds-7" value="&lt;div&gt;tMin = t0&lt;/div&gt;&lt;div&gt;normalAxis = axis&lt;/div&gt;" style="rounded=0;whiteSpace=wrap;html=1;strokeWidth=1;" vertex="1" parent="ZH4LXpfFv5B8ehN6JzZi-1">
                    <mxGeometry x="520" y="810" width="250" height="70" as="geometry"/>
                </mxCell>
                <mxCell id="_-OJUJnLG9xTgktfz-vs-14" style="edgeStyle=none;rounded=0;html=1;exitX=0.5;exitY=1;exitDx=0;exitDy=0;entryX=0.5;entryY=1;entryDx=0;entryDy=0;entryPerimeter=0;endArrow=none;endFill=0;" edge="1" parent="ZH4LXpfFv5B8ehN6JzZi-1" source="Bp5IvcJp2YZm3LD2hwds-8" target="1kIM9--_dxtb_1zO2C9b-2">
                    <mxGeometry relative="1" as="geometry"/>
                </mxCell>
                <mxCell id="Bp5IvcJp2YZm3LD2hwds-8" value="tMax = min(tMax, t1)" style="rounded=0;whiteSpace=wrap;html=1;strokeWidth=1;" vertex="1" parent="ZH4LXpfFv5B8ehN6JzZi-1">
                    <mxGeometry x="260" y="950" width="250" height="70" as="geometry"/>
                </mxCell>
                <mxCell id="_-OJUJnLG9xTgktfz-vs-2" value="Да" style="edgeStyle=none;html=1;exitX=1;exitY=0.5;exitDx=0;exitDy=0;entryX=0.5;entryY=0;entryDx=0;entryDy=0;rounded=0;" edge="1" parent="ZH4LXpfFv5B8ehN6JzZi-1" source="1kIM9--_dxtb_1zO2C9b-0" target="1kIM9--_dxtb_1zO2C9b-1">
                    <mxGeometry y="15" relative="1" as="geometry">
                        <Array as="points">
                            <mxPoint x="645" y="1225"/>
                        </Array>
                        <mxPoint as="offset"/>
                    </mxGeometry>
                </mxCell>
                <mxCell id="_-OJUJnLG9xTgktfz-vs-7" style="edgeStyle=none;rounded=0;html=1;exitX=0;exitY=0.5;exitDx=0;exitDy=0;entryX=0.5;entryY=0;entryDx=0;entryDy=0;" edge="1" parent="ZH4LXpfFv5B8ehN6JzZi-1" source="1kIM9--_dxtb_1zO2C9b-0" target="1kIM9--_dxtb_1zO2C9b-3">
                    <mxGeometry relative="1" as="geometry">
                        <Array as="points">
                            <mxPoint x="125" y="1225"/>
                        </Array>
                    </mxGeometry>
                </mxCell>
                <mxCell id="1kIM9--_dxtb_1zO2C9b-0" value="tMin &amp;gt;= tMax или tMin &amp;lt; 0" style="rhombus;whiteSpace=wrap;html=1;strokeWidth=1;" vertex="1" parent="ZH4LXpfFv5B8ehN6JzZi-1">
                    <mxGeometry x="260" y="1190" width="250" height="70" as="geometry"/>
                </mxCell>
                <mxCell id="_-OJUJnLG9xTgktfz-vs-17" style="edgeStyle=none;rounded=0;html=1;exitX=0.5;exitY=1;exitDx=0;exitDy=0;entryX=0.5;entryY=0;entryDx=0;entryDy=0;endArrow=none;endFill=0;" edge="1" parent="ZH4LXpfFv5B8ehN6JzZi-1" source="1kIM9--_dxtb_1zO2C9b-1" target="1kIM9--_dxtb_1zO2C9b-4">
                    <mxGeometry relative="1" as="geometry">
                        <Array as="points">
                            <mxPoint x="645" y="1370"/>
                            <mxPoint x="385" y="1370"/>
                        </Array>
                    </mxGeometry>
                </mxCell>
                <mxCell id="1kIM9--_dxtb_1zO2C9b-1" value="res = null" style="rounded=0;whiteSpace=wrap;html=1;strokeWidth=1;" vertex="1" parent="ZH4LXpfFv5B8ehN6JzZi-1">
                    <mxGeometry x="520" y="1270" width="250" height="70" as="geometry"/>
                </mxCell>
                <mxCell id="_-OJUJnLG9xTgktfz-vs-15" style="edgeStyle=none;rounded=0;html=1;exitX=0.5;exitY=0;exitDx=0;exitDy=0;exitPerimeter=0;entryX=0.5;entryY=0;entryDx=0;entryDy=0;endArrow=none;endFill=0;" edge="1" parent="ZH4LXpfFv5B8ehN6JzZi-1" source="1kIM9--_dxtb_1zO2C9b-2" target="1kIM9--_dxtb_1zO2C9b-0">
                    <mxGeometry relative="1" as="geometry"/>
                </mxCell>
                <mxCell id="1kIM9--_dxtb_1zO2C9b-2" value="Цикл по координатам" style="strokeWidth=1;html=1;shape=mxgraph.flowchart.loop_limit;whiteSpace=wrap;direction=west;" vertex="1" parent="ZH4LXpfFv5B8ehN6JzZi-1">
                    <mxGeometry x="260" y="1070" width="250" height="70" as="geometry"/>
                </mxCell>
                <mxCell id="_-OJUJnLG9xTgktfz-vs-16" style="edgeStyle=none;rounded=0;html=1;exitX=0.5;exitY=1;exitDx=0;exitDy=0;entryX=0.5;entryY=0;entryDx=0;entryDy=0;endArrow=none;endFill=0;" edge="1" parent="ZH4LXpfFv5B8ehN6JzZi-1" source="1kIM9--_dxtb_1zO2C9b-3" target="1kIM9--_dxtb_1zO2C9b-4">
                    <mxGeometry relative="1" as="geometry">
                        <Array as="points">
                            <mxPoint x="125" y="1370"/>
                            <mxPoint x="385" y="1370"/>
                        </Array>
                    </mxGeometry>
                </mxCell>
                <mxCell id="1kIM9--_dxtb_1zO2C9b-3" value="Вычислить параметров точки пересечения res" style="rounded=0;whiteSpace=wrap;html=1;strokeWidth=1;" vertex="1" parent="ZH4LXpfFv5B8ehN6JzZi-1">
                    <mxGeometry y="1270" width="250" height="70" as="geometry"/>
                </mxCell>
                <mxCell id="_-OJUJnLG9xTgktfz-vs-18" style="edgeStyle=none;rounded=0;html=1;exitX=0.5;exitY=1;exitDx=0;exitDy=0;entryX=0.5;entryY=0;entryDx=0;entryDy=0;entryPerimeter=0;endArrow=none;endFill=0;" edge="1" parent="ZH4LXpfFv5B8ehN6JzZi-1" source="1kIM9--_dxtb_1zO2C9b-4" target="_-OJUJnLG9xTgktfz-vs-0">
                    <mxGeometry relative="1" as="geometry"/>
                </mxCell>
                <mxCell id="1kIM9--_dxtb_1zO2C9b-4" value="&amp;nbsp;Вернуть res" style="rounded=0;whiteSpace=wrap;html=1;strokeWidth=1;" vertex="1" parent="ZH4LXpfFv5B8ehN6JzZi-1">
                    <mxGeometry x="260" y="1400" width="250" height="70" as="geometry"/>
                </mxCell>
                <mxCell id="_-OJUJnLG9xTgktfz-vs-0" value="Конец" style="strokeWidth=1;html=1;shape=mxgraph.flowchart.terminator;whiteSpace=wrap;" vertex="1" parent="ZH4LXpfFv5B8ehN6JzZi-1">
                    <mxGeometry x="260" y="1510" width="250" height="70" as="geometry"/>
                </mxCell>
            </root>
        </mxGraphModel>
    </diagram>
    <diagram id="V-KxfzLpE4t1JdAnXiuc" name="intersec_rs">
        <mxGraphModel dx="2201" dy="790" grid="1" gridSize="10" guides="1" tooltips="1" connect="1" arrows="1" fold="1" page="1" pageScale="1" pageWidth="827" pageHeight="1169" math="0" shadow="0">
            <root>
                <mxCell id="F9PrGo0KVWLmOK3akva0-0"/>
                <mxCell id="F9PrGo0KVWLmOK3akva0-1" parent="F9PrGo0KVWLmOK3akva0-0"/>
                <mxCell id="14" style="edgeStyle=none;html=1;exitX=0.5;exitY=1;exitDx=0;exitDy=0;exitPerimeter=0;entryX=0.5;entryY=0;entryDx=0;entryDy=0;endArrow=none;endFill=0;" parent="F9PrGo0KVWLmOK3akva0-1" source="OM2pulLjg_VAX3tMeTcW-0" target="0" edge="1">
                    <mxGeometry relative="1" as="geometry"/>
                </mxCell>
                <mxCell id="OM2pulLjg_VAX3tMeTcW-0" value="Начало" style="strokeWidth=1;html=1;shape=mxgraph.flowchart.terminator;whiteSpace=wrap;" parent="F9PrGo0KVWLmOK3akva0-1" vertex="1">
                    <mxGeometry x="220" y="90" width="200" height="50" as="geometry"/>
                </mxCell>
                <mxCell id="15" style="edgeStyle=none;html=1;exitX=0.5;exitY=1;exitDx=0;exitDy=0;entryX=0.5;entryY=0;entryDx=0;entryDy=0;endArrow=none;endFill=0;" parent="F9PrGo0KVWLmOK3akva0-1" source="0" target="1" edge="1">
                    <mxGeometry relative="1" as="geometry"/>
                </mxCell>
                <mxCell id="0" value="oc = ray.o - sphere.c" style="rounded=0;whiteSpace=wrap;html=1;" parent="F9PrGo0KVWLmOK3akva0-1" vertex="1">
                    <mxGeometry x="220" y="180" width="200" height="50" as="geometry"/>
                </mxCell>
                <mxCell id="16" style="edgeStyle=none;html=1;exitX=0.5;exitY=1;exitDx=0;exitDy=0;entryX=0.5;entryY=0;entryDx=0;entryDy=0;endArrow=none;endFill=0;" parent="F9PrGo0KVWLmOK3akva0-1" source="1" target="2" edge="1">
                    <mxGeometry relative="1" as="geometry"/>
                </mxCell>
                <mxCell id="1" value="a = Dot(ray.d, ray.d)" style="rounded=0;whiteSpace=wrap;html=1;" parent="F9PrGo0KVWLmOK3akva0-1" vertex="1">
                    <mxGeometry x="220" y="270" width="200" height="50" as="geometry"/>
                </mxCell>
                <mxCell id="17" style="edgeStyle=none;html=1;exitX=0.5;exitY=1;exitDx=0;exitDy=0;entryX=0.5;entryY=0;entryDx=0;entryDy=0;endArrow=none;endFill=0;" parent="F9PrGo0KVWLmOK3akva0-1" source="2" target="3" edge="1">
                    <mxGeometry relative="1" as="geometry"/>
                </mxCell>
                <mxCell id="2" value="h = Dot(oc, ray.d)" style="rounded=0;whiteSpace=wrap;html=1;" parent="F9PrGo0KVWLmOK3akva0-1" vertex="1">
                    <mxGeometry x="220" y="370" width="200" height="50" as="geometry"/>
                </mxCell>
                <mxCell id="18" style="edgeStyle=none;html=1;exitX=0.5;exitY=1;exitDx=0;exitDy=0;entryX=0.5;entryY=0;entryDx=0;entryDy=0;endArrow=none;endFill=0;" parent="F9PrGo0KVWLmOK3akva0-1" source="3" target="4" edge="1">
                    <mxGeometry relative="1" as="geometry"/>
                </mxCell>
                <mxCell id="3" value="c = Dot(oc,oc) - sphere.r * sphere.r" style="rounded=0;whiteSpace=wrap;html=1;" parent="F9PrGo0KVWLmOK3akva0-1" vertex="1">
                    <mxGeometry x="220" y="470" width="200" height="50" as="geometry"/>
                </mxCell>
                <mxCell id="19" style="edgeStyle=none;html=1;exitX=0.5;exitY=1;exitDx=0;exitDy=0;entryX=0.5;entryY=0;entryDx=0;entryDy=0;endArrow=none;endFill=0;" parent="F9PrGo0KVWLmOK3akva0-1" source="4" target="6" edge="1">
                    <mxGeometry relative="1" as="geometry"/>
                </mxCell>
                <mxCell id="4" value="D = h * h - a * c" style="rounded=0;whiteSpace=wrap;html=1;" parent="F9PrGo0KVWLmOK3akva0-1" vertex="1">
                    <mxGeometry x="220" y="570" width="200" height="50" as="geometry"/>
                </mxCell>
                <mxCell id="26" style="edgeStyle=none;rounded=0;html=1;exitX=0;exitY=0.5;exitDx=0;exitDy=0;entryX=0.5;entryY=0;entryDx=0;entryDy=0;endArrow=classic;endFill=1;" parent="F9PrGo0KVWLmOK3akva0-1" source="6" target="9" edge="1">
                    <mxGeometry relative="1" as="geometry">
                        <Array as="points">
                            <mxPoint x="120" y="695"/>
                        </Array>
                    </mxGeometry>
                </mxCell>
                <mxCell id="27" value="Да" style="edgeStyle=none;rounded=0;html=1;exitX=1;exitY=0.5;exitDx=0;exitDy=0;entryX=0.5;entryY=0;entryDx=0;entryDy=0;endArrow=classic;endFill=1;" parent="F9PrGo0KVWLmOK3akva0-1" source="6" target="7" edge="1">
                    <mxGeometry x="-0.7015" y="15" relative="1" as="geometry">
                        <Array as="points">
                            <mxPoint x="520" y="695"/>
                        </Array>
                        <mxPoint as="offset"/>
                    </mxGeometry>
                </mxCell>
                <mxCell id="6" value="D &amp;lt; 0?" style="rhombus;whiteSpace=wrap;html=1;" parent="F9PrGo0KVWLmOK3akva0-1" vertex="1">
                    <mxGeometry x="220" y="670" width="200" height="50" as="geometry"/>
                </mxCell>
                <mxCell id="21" style="edgeStyle=none;html=1;exitX=0.5;exitY=1;exitDx=0;exitDy=0;entryX=0.5;entryY=0;entryDx=0;entryDy=0;endArrow=none;endFill=0;rounded=0;" parent="F9PrGo0KVWLmOK3akva0-1" source="7" target="12" edge="1">
                    <mxGeometry relative="1" as="geometry">
                        <Array as="points">
                            <mxPoint x="520" y="1050"/>
                            <mxPoint x="360" y="1050"/>
                        </Array>
                    </mxGeometry>
                </mxCell>
                <mxCell id="7" value="res = null" style="rounded=0;whiteSpace=wrap;html=1;" parent="F9PrGo0KVWLmOK3akva0-1" vertex="1">
                    <mxGeometry x="420" y="930" width="200" height="50" as="geometry"/>
                </mxCell>
                <mxCell id="24" style="edgeStyle=none;rounded=0;html=1;exitX=0.5;exitY=1;exitDx=0;exitDy=0;entryX=0.5;entryY=0;entryDx=0;entryDy=0;endArrow=none;endFill=0;" parent="F9PrGo0KVWLmOK3akva0-1" source="9" target="10" edge="1">
                    <mxGeometry relative="1" as="geometry"/>
                </mxCell>
                <mxCell id="9" value="root = - ( h - sqrt (D)) / a&amp;nbsp;" style="rounded=0;whiteSpace=wrap;html=1;" parent="F9PrGo0KVWLmOK3akva0-1" vertex="1">
                    <mxGeometry x="20" y="750" width="200" height="50" as="geometry"/>
                </mxCell>
                <mxCell id="23" style="edgeStyle=none;rounded=0;html=1;exitX=0;exitY=0.5;exitDx=0;exitDy=0;entryX=0.5;entryY=0;entryDx=0;entryDy=0;endArrow=classic;endFill=1;" parent="F9PrGo0KVWLmOK3akva0-1" source="10" target="11" edge="1">
                    <mxGeometry relative="1" as="geometry">
                        <Array as="points">
                            <mxPoint x="-90" y="865"/>
                        </Array>
                    </mxGeometry>
                </mxCell>
                <mxCell id="25" value="Да" style="edgeStyle=none;rounded=0;html=1;exitX=1;exitY=0.5;exitDx=0;exitDy=0;entryX=0.5;entryY=0;entryDx=0;entryDy=0;endArrow=classic;endFill=1;" parent="F9PrGo0KVWLmOK3akva0-1" source="10" target="7" edge="1">
                    <mxGeometry x="-0.2329" y="15" relative="1" as="geometry">
                        <Array as="points">
                            <mxPoint x="520" y="865"/>
                        </Array>
                        <mxPoint as="offset"/>
                    </mxGeometry>
                </mxCell>
                <mxCell id="10" value="root &amp;lt; 0?&amp;nbsp;" style="rhombus;whiteSpace=wrap;html=1;" parent="F9PrGo0KVWLmOK3akva0-1" vertex="1">
                    <mxGeometry x="20" y="840" width="200" height="50" as="geometry"/>
                </mxCell>
                <mxCell id="22" style="edgeStyle=none;rounded=0;html=1;exitX=0.5;exitY=1;exitDx=0;exitDy=0;entryX=0.5;entryY=0;entryDx=0;entryDy=0;endArrow=none;endFill=0;" parent="F9PrGo0KVWLmOK3akva0-1" source="11" target="12" edge="1">
                    <mxGeometry relative="1" as="geometry">
                        <Array as="points">
                            <mxPoint x="-90" y="1050"/>
                            <mxPoint x="360" y="1050"/>
                        </Array>
                    </mxGeometry>
                </mxCell>
                <mxCell id="11" value="res = ray.o + root * ray.d" style="rounded=0;whiteSpace=wrap;html=1;" parent="F9PrGo0KVWLmOK3akva0-1" vertex="1">
                    <mxGeometry x="-190" y="930" width="200" height="50" as="geometry"/>
                </mxCell>
                <mxCell id="28" style="edgeStyle=none;rounded=0;html=1;exitX=0.5;exitY=1;exitDx=0;exitDy=0;entryX=0.5;entryY=0;entryDx=0;entryDy=0;entryPerimeter=0;endArrow=none;endFill=0;" parent="F9PrGo0KVWLmOK3akva0-1" source="12" target="13" edge="1">
                    <mxGeometry relative="1" as="geometry"/>
                </mxCell>
                <mxCell id="12" value="Вернуть res" style="rounded=0;whiteSpace=wrap;html=1;" parent="F9PrGo0KVWLmOK3akva0-1" vertex="1">
                    <mxGeometry x="260" y="1080" width="200" height="50" as="geometry"/>
                </mxCell>
                <mxCell id="13" value="Конец" style="strokeWidth=1;html=1;shape=mxgraph.flowchart.terminator;whiteSpace=wrap;" parent="F9PrGo0KVWLmOK3akva0-1" vertex="1">
                    <mxGeometry x="260" y="1169" width="200" height="50" as="geometry"/>
                </mxCell>
            </root>
        </mxGraphModel>
    </diagram>
    <diagram id="ZimBlVgKZzzTwOXMjA8s" name="ray-tracing">
        <mxGraphModel dx="1374" dy="790" grid="1" gridSize="10" guides="1" tooltips="1" connect="1" arrows="1" fold="1" page="1" pageScale="1" pageWidth="827" pageHeight="1169" math="0" shadow="0">
            <root>
                <mxCell id="0"/>
                <mxCell id="1" parent="0"/>
                <mxCell id="20" style="edgeStyle=none;html=1;exitX=0.5;exitY=1;exitDx=0;exitDy=0;exitPerimeter=0;entryX=0.5;entryY=0;entryDx=0;entryDy=0;endArrow=none;endFill=0;" parent="1" source="4" target="6" edge="1">
                    <mxGeometry relative="1" as="geometry"/>
                </mxCell>
                <mxCell id="4" value="Цикл по всем пикселям рассматриваемых объектов&amp;nbsp;" style="strokeWidth=1;html=1;shape=mxgraph.flowchart.loop_limit;whiteSpace=wrap;" parent="1" vertex="1">
                    <mxGeometry x="237.5" y="160" width="200" height="50" as="geometry"/>
                </mxCell>
                <mxCell id="21" style="edgeStyle=none;html=1;exitX=0.5;exitY=1;exitDx=0;exitDy=0;entryX=0.5;entryY=0;entryDx=0;entryDy=0;endArrow=none;endFill=0;" parent="1" source="6" target="9" edge="1">
                    <mxGeometry relative="1" as="geometry"/>
                </mxCell>
                <mxCell id="6" value="Создать луч" style="rounded=0;whiteSpace=wrap;html=1;strokeWidth=1;" parent="1" vertex="1">
                    <mxGeometry x="237.5" y="250" width="200" height="50" as="geometry"/>
                </mxCell>
                <mxCell id="27" value="Да" style="edgeStyle=none;html=1;exitX=1;exitY=0.5;exitDx=0;exitDy=0;entryX=0.5;entryY=0;entryDx=0;entryDy=0;rounded=0;" parent="1" source="9" target="12" edge="1">
                    <mxGeometry x="-0.2958" y="15" relative="1" as="geometry">
                        <Array as="points">
                            <mxPoint x="540" y="365"/>
                        </Array>
                        <mxPoint as="offset"/>
                    </mxGeometry>
                </mxCell>
                <mxCell id="29" style="edgeStyle=none;rounded=0;html=1;exitX=0;exitY=0.5;exitDx=0;exitDy=0;entryX=0.5;entryY=0;entryDx=0;entryDy=0;" parent="1" source="9" target="11" edge="1">
                    <mxGeometry relative="1" as="geometry">
                        <Array as="points">
                            <mxPoint x="138" y="365"/>
                        </Array>
                    </mxGeometry>
                </mxCell>
                <mxCell id="9" value="Луч пересекает объект&amp;nbsp;" style="rhombus;whiteSpace=wrap;html=1;strokeWidth=1;" parent="1" vertex="1">
                    <mxGeometry x="237.5" y="330" width="200" height="70" as="geometry"/>
                </mxCell>
                <mxCell id="31" style="edgeStyle=none;rounded=0;html=1;exitX=0.5;exitY=1;exitDx=0;exitDy=0;entryX=0.5;entryY=0;entryDx=0;entryDy=0;endArrow=none;endFill=0;" parent="1" source="11" target="14" edge="1">
                    <mxGeometry relative="1" as="geometry">
                        <Array as="points">
                            <mxPoint x="138" y="640"/>
                            <mxPoint x="340" y="640"/>
                        </Array>
                    </mxGeometry>
                </mxCell>
                <mxCell id="11" value="Цвет = цвет фона" style="rounded=0;whiteSpace=wrap;html=1;strokeWidth=1;" parent="1" vertex="1">
                    <mxGeometry x="37.5" y="440" width="200" height="50" as="geometry"/>
                </mxCell>
                <mxCell id="28" style="edgeStyle=none;html=1;exitX=0.5;exitY=1;exitDx=0;exitDy=0;entryX=0.5;entryY=0;entryDx=0;entryDy=0;endArrow=none;endFill=0;" parent="1" source="12" target="13" edge="1">
                    <mxGeometry relative="1" as="geometry"/>
                </mxCell>
                <mxCell id="12" value="Проверить тени и отражения" style="rounded=0;whiteSpace=wrap;html=1;strokeWidth=1;" parent="1" vertex="1">
                    <mxGeometry x="440" y="440" width="200" height="50" as="geometry"/>
                </mxCell>
                <mxCell id="30" style="edgeStyle=none;rounded=0;html=1;exitX=0.5;exitY=1;exitDx=0;exitDy=0;entryX=0.5;entryY=0;entryDx=0;entryDy=0;endArrow=none;endFill=0;" parent="1" source="13" target="14" edge="1">
                    <mxGeometry relative="1" as="geometry">
                        <Array as="points">
                            <mxPoint x="540" y="640"/>
                            <mxPoint x="340" y="640"/>
                        </Array>
                    </mxGeometry>
                </mxCell>
                <mxCell id="13" value="Вычислить цвет" style="rounded=0;whiteSpace=wrap;html=1;strokeWidth=1;" parent="1" vertex="1">
                    <mxGeometry x="440" y="535" width="200" height="50" as="geometry"/>
                </mxCell>
                <mxCell id="32" style="edgeStyle=none;rounded=0;html=1;exitX=0.5;exitY=1;exitDx=0;exitDy=0;entryX=0.5;entryY=1;entryDx=0;entryDy=0;entryPerimeter=0;endArrow=none;endFill=0;" parent="1" source="14" target="15" edge="1">
                    <mxGeometry relative="1" as="geometry"/>
                </mxCell>
                <mxCell id="14" value="Закрасить текущий пиксель полученным цветом&amp;nbsp;&amp;nbsp;" style="rounded=0;whiteSpace=wrap;html=1;strokeWidth=1;" parent="1" vertex="1">
                    <mxGeometry x="240" y="670" width="200" height="50" as="geometry"/>
                </mxCell>
                <mxCell id="33" style="edgeStyle=none;rounded=0;html=1;exitX=0.5;exitY=0;exitDx=0;exitDy=0;exitPerimeter=0;entryX=0.5;entryY=0;entryDx=0;entryDy=0;entryPerimeter=0;endArrow=none;endFill=0;" parent="1" source="15" target="17" edge="1">
                    <mxGeometry relative="1" as="geometry"/>
                </mxCell>
                <mxCell id="15" value="Цикл по всем пикселям рассматриваемых объектов" style="strokeWidth=1;html=1;shape=mxgraph.flowchart.loop_limit;whiteSpace=wrap;direction=west;" parent="1" vertex="1">
                    <mxGeometry x="240" y="760" width="200" height="50" as="geometry"/>
                </mxCell>
                <mxCell id="17" value="Конец" style="strokeWidth=1;html=1;shape=mxgraph.flowchart.terminator;whiteSpace=wrap;" parent="1" vertex="1">
                    <mxGeometry x="240" y="850" width="200" height="50" as="geometry"/>
                </mxCell>
                <mxCell id="19" style="edgeStyle=none;html=1;exitX=0.5;exitY=1;exitDx=0;exitDy=0;exitPerimeter=0;entryX=0.5;entryY=0;entryDx=0;entryDy=0;entryPerimeter=0;endArrow=none;endFill=0;" parent="1" source="18" target="4" edge="1">
                    <mxGeometry relative="1" as="geometry"/>
                </mxCell>
                <mxCell id="18" value="Начало" style="strokeWidth=1;html=1;shape=mxgraph.flowchart.terminator;whiteSpace=wrap;" parent="1" vertex="1">
                    <mxGeometry x="237.5" y="70" width="200" height="50" as="geometry"/>
                </mxCell>
            </root>
        </mxGraphModel>
    </diagram>
</mxfile>